<svg xmlns="http://www.w3.org/2000/svg" style="display: none">

    <symbol id="git" viewBox="0 0 512 512">
        <path
                d="M309.4,415.9c2.1,1.8,1.3,4.3,1.3,6.5c0,29.6,0,59.1,0,88.7c0,0.6,0.2,1.3,0.2,1.9c-35.3,0-70.7,0-106,0   c0.4-17.4,0.4-34.9,0-52.3c3.2,0.1,1.7,2.6,1.7,3.9c0.1,14,0.2,28,0,41.9c-0.1,4,1.2,5.1,5.1,5.1c30.8-0.1,61.6-0.2,92.4,0   c4.4,0,5.1-1.5,5.1-5.4c-0.2-25.3-0.1-50.6-0.1-75.9C309.2,425.5,309.4,420.7,309.4,415.9z"/>
        <path
                d="M309.4,415.9c-0.1,4.8-0.2,9.6-0.2,14.4c0,25.3-0.1,50.6,0.1,75.9c0,3.9-0.7,5.5-5.1,5.4   c-30.8-0.2-61.6-0.2-92.4,0c-3.9,0-5.2-1.1-5.1-5.1c0.2-14,0.1-28,0-41.9c0-1.3,1.6-3.8-1.7-3.9c-0.7,0-1.3,0.1-2,0.1   c-1.3-0.6-2.5-0.5-3.3,0.9c-12.4,1.3-24.9,2.3-37.2-0.8c-21.8-5.5-37.4-18.4-47-38.9c-6.2-13.4-14.4-25.8-23.9-37.2   c-3-3.6-7.8-5-11-8.6c-1.2-1.4-3.2-2.5-2.6-4.4c0.6-2.3,3.1-2.2,5.1-2.4c20-1.7,34.2,7.8,44.1,24.2c9.1,15,21,26.1,38.2,30.6   c12.2,3.2,24.4,2.5,36.4-1.2c2.8-0.9,4.3-2.1,4.6-5.5c0.9-12.4,3.5-24.4,12.1-34.9c-3.3-0.6-5.9-1.2-8.6-1.6   c-21.2-3.2-40.9-10.5-58-23.6c-19.1-14.6-31-34.1-34.7-58c-3.2-20.9-2-41.9,0.7-62.8c2.1-16.1,6.6-31.4,18.2-43.4   c4.1-4.2,4.4-7.6,2.6-12.9c-6.1-17.8-4.4-35.7,1.1-53.5c1-3.3,2.5-4.3,6.1-3.4c13.5,3.3,23.9,11.2,33.3,20.8   c4.6,4.6,8.5,9.8,12.3,15c1.1,1.5,1.9,2.3,3.8,0.8c7.2-5.7,15.9-7.5,24.6-8.8c25.2-3.6,50.5-3.7,75.7-0.1c8.4,1.2,16.9,2.7,23.9,8   c3.3,2.5,4.6,1.1,6.4-1.5c6.7-9.8,14.9-18.2,24.5-25.1c6.1-4.4,12.9-7.4,20.3-9.2c3.2-0.8,4.5,0.1,5.5,3   c6.8,19.2,7.8,38.4,0.2,57.6c-0.9,2.4-1.5,4.1,0.7,6.2c12.3,11.6,18.1,26.4,20.5,42.7c2.9,19.8,4.6,39.7,2.3,59.8   c-3.8,33.8-21,58.4-50.8,74.5c-1.1-0.1-2,0.2-2.4,1.3c-0.8,0.4-1.6,0.8-2.3,1.1c-2.6,0.1-4.8,1.2-6.6,2.9c-0.8,0.3-1.7,0.5-2.5,0.8   c-1.2-0.3-2,0.2-2.5,1.2c-0.5,0.1-1.1,0.3-1.6,0.4c-4,0.6-8,1.1-11.4,3.5c-0.5,0.1-1.1,0.2-1.6,0.3c-2.9-0.1-5.8,0.1-8.3,1.9   c-2.2,0.3-4.3,0.6-6.5,0.9c-1.7,0.1-3.6-0.1-5.1,0.5c-1.6,0.7-0.9,1.7,0.5,2.1l0.1,0.1c0.1,1.4,0.8,2.4,2.1,2.8   c0.8,1.6,1.6,3.2,2.4,4.7c0.2,2.1,0.6,4.1,2.4,5.5c0.2,0.9,0.4,1.7,0.6,2.6c0.5,2.8,0.5,5.6,2.1,8.1c0.1,0.6,0.2,1.2,0.3,1.7   c-0.6,1.2-0.3,2.3,0.6,3.3C309.3,413.9,309.3,414.9,309.4,415.9z"/>
        <path d="M319.6,378.5c3.4-2.5,7.4-2.9,11.4-3.5C327.3,376.5,323.9,378.9,319.6,378.5z"/>
        <path d="M309.7,380.7c2.5-1.8,5.4-1.9,8.3-1.9C315.6,380.8,312.7,381,309.7,380.7z"/>
        <path d="M308.3,408c-1.7-2.4-1.7-5.3-2.1-8.1C308.3,402.2,309.1,404.9,308.3,408z"/>
        <path d="M337.6,372.4c1.9-1.7,4-2.9,6.6-2.9C342.4,371.4,340.3,372.6,337.6,372.4z"/>
        <path d="M298.7,384.2c-1.5-0.4-2.1-1.4-0.5-2.1c1.5-0.6,3.4-0.4,5.1-0.5C302.2,383.3,299.3,381.8,298.7,384.2z"/>
        <path d="M305.6,397.3c-1.8-1.4-2.2-3.4-2.4-5.5C305.3,393.1,305.4,395.2,305.6,397.3z"/>
        <path d="M309.2,413c-0.9-1-1.1-2-0.6-3.3C309.8,410.6,310.2,411.7,309.2,413z"/>
        <path d="M199.7,461.7c0.8-1.4,1.9-1.4,3.3-0.9C202.1,461.8,201.1,462.3,199.7,461.7z"/>
        <path d="M300.9,387.1c-1.4-0.4-2-1.4-2.1-2.8C300.3,384.6,301,385.6,300.9,387.1z"/>
        <path d="M346.6,368.4c0.4-1.1,1.4-1.4,2.4-1.3C348.7,368.3,348,369.1,346.6,368.4z"/>
        <path d="M332.6,374.5c0.5-1.1,1.3-1.5,2.5-1.2C334.7,374.4,334,375.1,332.6,374.5z"/>
    </symbol>

    <symbol id="phone" viewBox="0 0 64 64">
        <path
                d="M41.883,27.817c0,0-1.479-1.715-2.495-1.715h-0.845v-3.949c0-1.104-0.896-2-2-2s-2,0.896-2,2v3.949h-5.085v-3.949   c0-1.104-0.896-2-2-2s-2,0.896-2,2v3.949h-0.847c-1.016,0-2.494,1.715-2.494,1.715L11.175,38.033   c-0.419,0.392-0.76,1.107-0.76,1.598v0.888v11.735c0,2.028,1.646,3.673,3.674,3.673h35.823c2.028,0,3.673-1.645,3.673-3.673V40.519   c0,0,0-0.396,0-0.888c0-0.49-0.341-1.206-0.76-1.598L41.883,27.817z M48.585,50.927h-33.17V40.915l10.114-9.443l0.177-0.161   l0.177-0.205c0.001-0.001,0.002-0.002,0.003-0.004h12.227l0.16,0.185l0.197,0.184l10.114,9.443V50.927z"/>
        <path
                d="M40.127,8.073H23.873c-8.283,0-15.001,6.718-15.001,15.003v2.004c0,0.565,0.458,1.022,1.024,1.022h9.211   c1.381,0,2.501-1.118,2.501-2.5v-5.153c0-1.38,1.119-2.5,2.5-2.5h15.783c1.381,0,2.501,1.12,2.501,2.5v5.153   c0,1.382,1.119,2.5,2.5,2.5h9.213c0.565,0,1.022-0.457,1.022-1.022v-2.004C55.128,14.791,48.412,8.073,40.127,8.073z"/>
        <path
                d="M32,33.638c-4.214,0-7.632,3.418-7.632,7.632c0,4.215,3.418,7.632,7.632,7.632c4.215,0,7.632-3.417,7.632-7.632   C39.632,37.056,36.215,33.638,32,33.638z M32,43.133c-1.029,0-1.863-0.834-1.863-1.863s0.834-1.863,1.863-1.863   s1.863,0.834,1.863,1.863S33.029,43.133,32,43.133z"/>
    </symbol>

    <symbol id="email" viewBox="0 0 48 48">
        <path
                d="M45,7H3a3,3,0,0,0-3,3V38a3,3,0,0,0,3,3H45a3,3,0,0,0,3-3V10A3,3,0,0,0,45,7Zm-.64,2L24,24.74,3.64,9ZM2,37.59V10.26L17.41,22.17ZM3.41,39,19,23.41l4.38,3.39a1,1,0,0,0,1.22,0L29,23.41,44.59,39ZM46,37.59,30.59,22.17,46,10.26Z"/>
    </symbol>

    <symbol id="close" viewBox="0 0 256 256">
        <path
                d="M137.051,128l75.475-75.475c2.5-2.5,2.5-6.551,0-9.051s-6.551-2.5-9.051,0L128,118.949L52.525,43.475  c-2.5-2.5-6.551-2.5-9.051,0s-2.5,6.551,0,9.051L118.949,128l-75.475,75.475c-2.5,2.5-2.5,6.551,0,9.051  c1.25,1.25,2.888,1.875,4.525,1.875s3.275-0.625,4.525-1.875L128,137.051l75.475,75.475c1.25,1.25,2.888,1.875,4.525,1.875  s3.275-0.625,4.525-1.875c2.5-2.5,2.5-6.551,0-9.051L137.051,128z"/>

    </symbol>

    <symbol id="addTable" viewBox="0 0 100 100">
        <path d="M87.114,39.605h-5.75v-5.75c0-1.104-0.896-2-2-2s-2,0.896-2,2v5.75h-5.75c-1.104,0-2,0.896-2,2s0.896,2,2,2h5.75v5.75  c0,1.104,0.896,2,2,2s2-0.896,2-2v-5.75h5.75c1.104,0,2-0.896,2-2S88.219,39.605,87.114,39.605z"/>
        <path d="M9.058,36.096c3.34,0,6.058-2.713,6.058-6.048S12.397,24,9.058,24S3,26.713,3,30.048S5.718,36.096,9.058,36.096z M9.058,28  c1.135,0,2.058,0.919,2.058,2.048s-0.923,2.048-2.058,2.048S7,31.177,7,30.048S7.923,28,9.058,28z"/>
        <path d="M95,28.05h-4.416C87.535,25.522,83.625,24,79.364,24s-8.171,1.522-11.22,4.05H21.98c-1.104,0-2,0.896-2,2s0.896,2,2,2  h42.617c-1.789,2.755-2.84,6.033-2.84,9.556c0,2.257,0.442,4.409,1.22,6.395H21.98c-1.104,0-2,0.896-2,2s0.896,2,2,2h43.206  c3.208,4.363,8.36,7.212,14.178,7.212c9.708,0,17.605-7.898,17.605-17.606c0-3.523-1.051-6.8-2.84-9.556H95c1.104,0,2-0.896,2-2  S96.104,28.05,95,28.05z M79.364,55.212c-7.503,0-13.606-6.104-13.606-13.606C65.758,34.104,71.861,28,79.364,28  c7.502,0,13.605,6.104,13.605,13.605C92.97,49.108,86.866,55.212,79.364,55.212z"/>
        <path d="M9.058,56.048c3.34,0,6.058-2.713,6.058-6.048s-2.718-6.048-6.058-6.048S3,46.665,3,50S5.718,56.048,9.058,56.048z   M9.058,47.952c1.135,0,2.058,0.919,2.058,2.048s-0.923,2.048-2.058,2.048S7,51.129,7,50S7.923,47.952,9.058,47.952z"/>
        <path d="M9.058,76c3.34,0,6.058-2.713,6.058-6.048s-2.718-6.048-6.058-6.048S3,66.617,3,69.952S5.718,76,9.058,76z M9.058,67.904  c1.135,0,2.058,0.919,2.058,2.048S10.192,72,9.058,72S7,71.081,7,69.952S7.923,67.904,9.058,67.904z"/>
        <path d="M58.488,71.952c1.104,0,2-0.896,2-2s-0.896-2-2-2H21.977c-1.104,0-2,0.896-2,2s0.896,2,2,2H58.488z"/>
    </symbol>

    <symbol id="deleteTable" viewBox="0 0 48 48">

        <path d="M12 38c0 2.2 1.8 4 4 4h16c2.2 0 4-1.8 4-4V14H12v24zm4.93-14.24l2.83-2.83L24 25.17l4.24-4.24 2.83 2.83L26.83 28l4.24 4.24-2.83 2.83L24 30.83l-4.24 4.24-2.83-2.83L21.17 28l-4.24-4.24zM31 8l-2-2H19l-2 2h-7v4h28V8z"/>

    </symbol>


    <symbol id="sun" viewBox="0 0 512 512">
        <path d="M276,170a106,106,0,0,0-84.28,170.28A106,106,0,0,0,340.28,191.72,105.53,105.53,0,0,0,276,170Z"
              fill="#f7ad1e"/>
        <path d="M150.9,242.12A107.63,107.63,0,0,0,150,256a106,106,0,1,0,19.59-61.37" fill="none" stroke="#02005c"
              stroke-linecap="round" stroke-linejoin="round" stroke-width="20"/>
        <path d="M157.56,216.68c-.17.41-.34.81-.5,1.22" fill="none" stroke="#02005c" stroke-linecap="round"
              stroke-linejoin="round" stroke-width="20"/>
        <line fill="none" stroke="#02005c" stroke-linecap="round" stroke-linejoin="round" stroke-width="20" x1="256"
              x2="256" y1="64" y2="123"/>
        <line fill="none" stroke="#02005c" stroke-linecap="round" stroke-linejoin="round" stroke-width="20" x1="256"
              x2="256" y1="389" y2="447.99"/>
        <line fill="none" stroke="#02005c" stroke-linecap="round" stroke-linejoin="round" stroke-width="20" x1="120.24"
              x2="161.96" y1="120.24" y2="161.95"/>
        <line fill="none" stroke="#02005c" stroke-linecap="round" stroke-linejoin="round" stroke-width="20" x1="350.04"
              x2="391.76" y1="350.04" y2="391.76"/>
        <line fill="none" stroke="#02005c" stroke-linecap="round" stroke-linejoin="round" stroke-width="20" x1="64" x2="123"
              y1="256" y2="256"/>
        <line fill="none" stroke="#02005c" stroke-linecap="round" stroke-linejoin="round" stroke-width="20" x1="389"
              x2="448" y1="256" y2="256"/>
        <line fill="none" stroke="#02005c" stroke-linecap="round" stroke-linejoin="round" stroke-width="20" x1="120.24"
              x2="161.96" y1="391.76" y2="350.04"/>
        <line fill="none" stroke="#02005c" stroke-linecap="round" stroke-linejoin="round" stroke-width="20" x1="350.04"
              x2="391.76" y1="161.95" y2="120.24"/>
    </symbol>


    <symbol id="moon" viewBox="0 0 192 192">
        <path d="M111.2,176.9c-1,0-2,0-3-0.1c-34.3-1.5-61.6-29.7-62.1-64c-0.3-17.6,6.4-34.2,18.7-46.7   c12.3-12.5,28.8-19.4,46.4-19.4c1.5,0,3,0.1,4.6,0.2c1.3,0.1,2.4,1,2.7,2.3c0.3,1.3-0.2,2.6-1.3,3.3C103.7,61,95.4,76.8,95.4,93.8   c0,26.2,19.4,47.6,43.2,47.6c11.4,0,22.2-4.9,30.3-13.7c0.5-0.6,1.3-0.9,2-0.9c0.9,0,1.7,0.4,2.2,1.1c0.5,0.7,0.7,1.6,0.4,2.4   C165.4,157.8,139.8,176.9,111.2,176.9z"/>
        <path d="M111.2,49c1.5,0,3,0.1,4.4,0.2c0.8,0.1,1,1,0.4,1.4c-13.6,8.6-22.8,24.7-22.8,43.2c0,27.5,20.3,49.8,45.4,49.8   c12.5,0,23.8-5.5,32-14.4c0.1-0.1,0.2-0.2,0.4-0.2c0.3,0,0.6,0.3,0.5,0.7c-7.7,26-31.8,44.9-60.2,44.9c-1,0-1.9,0-2.9-0.1   c-33-1.5-59.4-28.8-59.9-61.8C47.8,77.6,76.1,49,111.2,49 M111.2,44.5c-18.2,0-35.2,7.1-48,20.1c-12.8,12.9-19.6,30.1-19.4,48.3   c0.3,17.1,7,33.4,19,45.8c12,12.4,28.1,19.7,45.2,20.4c1,0,2.1,0.1,3.1,0.1c14.8,0,28.9-4.7,40.6-13.6   c11.4-8.6,19.9-20.9,23.9-34.5c0.5-1.5,0.2-3.2-0.8-4.4c-0.9-1.3-2.5-2-4-2c-1.4,0-2.7,0.6-3.7,1.6c-7.7,8.4-17.9,13-28.7,13   c-22.6,0-40.9-20.3-40.9-45.3c0-16.3,7.9-31.4,20.7-39.4c1.9-1.2,2.9-3.5,2.3-5.8c-0.6-2.2-2.5-3.8-4.7-4   C114.3,44.6,112.7,44.5,111.2,44.5L111.2,44.5z"/>
        <path d="M58.3,112.8c-0.5-33.3,25-60.8,57.5-63.5c-0.1,0-0.2-0.1-0.3-0.1c-1.5-0.1-2.9-0.2-4.4-0.2    c-35,0-63.3,28.6-62.8,63.8c0.5,33,26.9,60.3,59.9,61.8c2.7,0.1,5.4,0.1,8-0.1C84.2,172,58.8,145.1,58.3,112.8z"/>
        <path d="M58.3,48.4c-0.9,0-2.3-0.4-2.3-3c0-7.4-6-13.4-13.4-13.4c-0.4,0-0.6,0-0.8,0c-1.5-0.2-2.2-1.3-2.2-2.3   c0-0.7,0.3-2.3,3-2.3c7.4,0,13.4-6,13.4-13.4c0-2.7,1.6-3,2.3-3c0.7,0,2.3,0.3,2.3,3c0,7.4,6,13.4,13.4,13.4c2.7,0,3,1.6,3,2.3   c0,1-0.7,2.1-2.2,2.3c-0.2,0-0.5,0-0.8,0c-7.4,0-13.4,6-13.4,13.4c0,0.4,0,0.7,0,0.8C60.4,47.7,59.3,48.4,58.3,48.4   C58.3,48.4,58.3,48.4,58.3,48.4z"/>
        <path d="M58.3,13.1c0,0,0.1,0.3,0.1,0.8c0,8.7,7,15.7,15.7,15.7c1,0,1.1,0.2,0,0.2c-8.7,0-15.7,7-15.7,15.7c0,0.5,0,0.8-0.1,0.8   c0,0-0.1-0.3-0.1-0.8c0-8.7-7-15.7-15.7-15.7c-1,0-1-0.2,0-0.2c8.7,0,15.7-7,15.7-15.7C58.2,13.4,58.2,13.1,58.3,13.1 M58.3,8.6   c-0.2,0-4.6,0.1-4.6,5.3c0,6.2-5,11.2-11.2,11.2c-5.2,0-5.3,4.4-5.3,4.6c0,2,1.4,4.2,4.2,4.5c0.3,0,0.7,0,1.1,0   c6.2,0,11.2,5,11.2,11.2c0,5.2,4.4,5.3,4.6,5.3c0.2,0,4.6-0.1,4.6-5.3c0-6.2,5-11.2,11.2-11.2c5.2,0,5.3-4.4,5.3-4.6   c0-0.2-0.1-4.6-5.3-4.6c-6.2,0-11.2-5-11.2-11.2C62.9,8.7,58.5,8.6,58.3,8.6L58.3,8.6z"/>
        <path d="M33.1,76.9c-0.4,0-2.3-0.1-2.3-2.8c0-4.7-3.8-8.5-8.5-8.5c-0.3,0-0.5,0-0.6,0c-1.5-0.2-2.1-1.3-2.1-2.3   c0-0.4,0.1-2.3,2.8-2.3c4.7,0,8.5-3.8,8.5-8.5c0-2.6,1.9-2.8,2.3-2.8c0.4,0,2.3,0.1,2.3,2.8c0,4.7,3.8,8.5,8.5,8.5   c2.7,0,2.8,1.9,2.8,2.3s-0.1,2.3-2.8,2.3c-4.7,0-8.5,3.8-8.5,8.5c0,0.3,0,0.5,0,0.6C35.2,76.2,34.1,76.9,33.1,76.9   C33.1,76.9,33.1,76.9,33.1,76.9z"/>
        <path d="M33.1,51.9c0,0,0.1,0.2,0.1,0.5c0,5.9,4.8,10.8,10.8,10.8c0.7,0,0.7,0.1,0,0.1c-5.9,0-10.8,4.8-10.8,10.8   c0,0.4,0,0.5-0.1,0.5c0,0-0.1-0.2-0.1-0.5c0-5.9-4.8-10.8-10.8-10.8c-0.7,0-0.7-0.1,0-0.1c5.9,0,10.8-4.8,10.8-10.8   C33.1,52.1,33.1,51.9,33.1,51.9 M33.1,47.4c-1.6,0-4.6,1.1-4.6,5c0,3.5-2.8,6.3-6.3,6.3c-4,0-5,3-5,4.6c0,1.6,1.1,4.6,5,4.6   c3.5,0,6.3,2.8,6.3,6.3c0,4,3,5,4.6,5c1.6,0,4.6-1.1,4.6-5c0-3.5,2.8-6.3,6.3-6.3c4,0,5-3,5-4.6c0-2-1.4-4.2-4.2-4.5   c-0.3,0-0.6,0-0.9,0c-3.5,0-6.3-2.8-6.3-6.3C37.7,48.5,34.7,47.4,33.1,47.4L33.1,47.4z"/>
    </symbol>

</svg>

